<?xml version="1.0" encoding="UTF-8"?>
<svg width="578px" height="288px" viewBox="0 0 578 288" version="1.1" xmlns="http://www.w3.org/2000/svg" xmlns:xlink="http://www.w3.org/1999/xlink">
    <!-- Generator: Sketch 52.6 (67491) - http://www.bohemiancoding.com/sketch -->
    <title>whale room identity-01</title>
    <desc>Created with Sketch.</desc>
    <g id="Page-1" stroke="none" stroke-width="1" fill="none" fill-rule="evenodd">
        <g id="whale-room-identity-01">
            <polyline id="Path" fill="#AF4193" points="126.82 171.53 26.19 113.43 126.16 55.33"></polyline>
            <polyline id="Path" fill="#E046BF" points="126.16 55.33 226.79 113.43 126.82 171.53"></polyline>
            <polygon id="Path" fill="#E046BF" points="126.98 171.34 126.66 287.26 25.53 228.87 25.86 112.95"></polygon>
            <polygon id="Path" fill="#AF4193" points="227.45 112.95 227.13 228.87 126.66 287.26 126.98 171.34"></polygon>
            <polygon id="Path" fill="#DDDDDD" points="269.64 93.57 284.12 93.57 293.74 132.22 293.91 132.22 306.51 93.57 318.86 93.57 331.37 133.25 331.54 133.25 341.68 93.57 355.13 93.57 337.5 153.85 325.67 153.85 312.38 112.13 312.21 112.13 298.93 153.85 287.52 153.85"></polygon>
            <polygon id="Path" fill="#DDDDDD" points="361.09 93.57 374.37 93.57 374.37 116 400.17 116 400.17 93.53 413.45 93.53 413.45 153.81 400.17 153.81 400.17 127.81 374.37 127.81 374.37 153.81 361.09 153.81"></polygon>
            <path d="M445.55,93.57 L456.55,93.57 L482.77,153.85 L467.77,153.85 L462.57,141.08 L439.17,141.08 L434.17,153.85 L419.5,153.85 L445.55,93.57 Z M450.66,111.11 L443.34,129.84 L458.07,129.84 L450.66,111.11 Z" id="Shape" fill="#DDDDDD" fill-rule="nonzero"></path>
            <polygon id="Path" fill="#DDDDDD" points="489.32 93.57 502.6 93.57 502.6 141.57 527.21 141.57 527.21 153.83 489.32 153.83"></polygon>
            <polygon id="Path" fill="#DDDDDD" points="535 93.57 576 93.57 576 105.83 548.33 105.83 548.33 117.07 574.47 117.07 574.47 129.33 548.33 129.33 548.33 141.59 577.53 141.59 577.53 153.85 535 153.85"></polygon>
            <path d="M276.09,172 L293.93,172 C296.658293,171.911252 299.37718,172.363267 301.93,173.33 C303.826252,174.063363 305.534576,175.211357 306.93,176.69 C308.119658,178.004982 308.992004,179.575205 309.48,181.28 C309.937476,182.877059 310.176318,184.528768 310.19,186.19 C310.19494,187.792985 309.90337,189.383059 309.33,190.88 C308.762242,192.379188 307.925144,193.761926 306.86,194.96 C305.743069,196.215779 304.40826,197.259234 302.92,198.04 C301.310787,198.896204 299.545772,199.419926 297.73,199.58 L312.13,222.72 L303.53,222.72 L290.64,200.37 L283,200.37 L283,222.72 L276.12,222.72 L276.09,172 Z M282.97,194.35 L291.97,194.35 C293.309928,194.355182 294.647937,194.248141 295.97,194.03 C297.200124,193.845459 298.388216,193.446044 299.48,192.85 C300.515166,192.269945 301.369945,191.415166 301.95,190.38 C303.2031,187.727203 303.2031,184.652797 301.95,182 C301.370159,180.962098 300.515551,180.10403 299.48,179.52 C298.386341,178.928258 297.19902,178.529102 295.97,178.34 C294.647338,178.126795 293.309735,178.019787 291.97,178.02 L282.97,178.02 L282.97,194.35 Z" id="Shape" fill="#DDDDDD" fill-rule="nonzero"></path>
            <path d="M343.14,224 C339.485495,224.052169 335.857531,223.372138 332.47,222 C329.334443,220.712126 326.493543,218.800047 324.12,216.38 C321.774506,213.940012 319.926763,211.066501 318.68,207.92 C316.053589,201.145657 316.053589,193.634343 318.68,186.86 C319.926539,183.716352 321.774385,180.846077 324.12,178.41 C326.490476,175.986267 329.332183,174.073645 332.47,172.79 C339.324234,170.056763 346.965766,170.056763 353.82,172.79 C356.95478,174.073837 359.793178,175.986523 362.16,178.41 C364.5092,180.845203 366.36048,183.715536 367.61,186.86 C370.236411,193.634343 370.236411,201.145657 367.61,207.92 C366.359799,211.06708 364.508676,213.940566 362.16,216.38 C359.790463,218.800219 356.95278,220.712422 353.82,222 C350.429282,223.373191 346.797839,224.053237 343.14,224 Z M343.14,217.55 C348.409027,217.646005 353.467624,215.484273 357.04,211.61 C358.737748,209.747701 360.052696,207.569712 360.91,205.2 C362.723043,200.127128 362.723043,194.582872 360.91,189.51 C360.055071,187.139156 358.739855,184.960725 357.04,183.1 C352.568676,178.234779 345.878214,176.062839 339.401812,177.374075 C332.925411,178.685311 327.606701,183.288672 325.38,189.51 C323.566957,194.582872 323.566957,200.127128 325.38,205.2 C326.229612,207.573374 327.545429,209.752803 329.25,211.61 C332.817013,215.485933 337.873428,217.648288 343.14,217.55 Z" id="Shape" fill="#DDDDDD" fill-rule="nonzero"></path>
            <path d="M402.74,224 C399.085495,224.052169 395.457531,223.372138 392.07,222 C388.935889,220.71491 386.097731,218.802386 383.73,216.38 C381.378086,213.94313 379.526528,211.068969 378.28,207.92 C375.653589,201.145657 375.653589,193.634343 378.28,186.86 C379.526526,183.713995 381.378161,180.843111 383.73,178.41 C386.094991,175.984329 388.933874,174.071317 392.07,172.79 C398.924234,170.056763 406.565766,170.056763 413.42,172.79 C416.556126,174.071317 419.395009,175.984329 421.76,178.41 C424.1092,180.845203 425.96048,183.715536 427.21,186.86 C429.836411,193.634343 429.836411,201.145657 427.21,207.92 C425.959799,211.06708 424.108676,213.940566 421.76,216.38 C419.392269,218.802386 416.554111,220.71491 413.42,222 C410.029282,223.373191 406.397839,224.053237 402.74,224 Z M402.74,217.55 C408.009027,217.646005 413.067624,215.484273 416.64,211.61 C418.337748,209.747701 419.652696,207.569712 420.51,205.2 C422.323043,200.127128 422.323043,194.582872 420.51,189.51 C419.655071,187.139156 418.339855,184.960725 416.64,183.1 C413.046354,179.246716 408.013974,177.058741 402.745,177.058741 C397.476026,177.058741 392.443646,179.246716 388.85,183.1 C387.147586,184.958812 385.832045,187.137783 384.98,189.51 C383.166957,194.582872 383.166957,200.127128 384.98,205.2 C385.833492,207.571528 387.148869,209.750228 388.85,211.61 C392.417013,215.485933 397.473428,217.648288 402.74,217.55 Z" id="Shape" fill="#DDDDDD" fill-rule="nonzero"></path>
            <polygon id="Path" fill="#DDDDDD" points="438.56 172 448.81 172 464.92 210.4 465.21 210.4 481.21 172 491.45 172 491.45 222.72 484.57 222.72 484.57 181 484.43 181 467.31 222.69 462.7 222.69 445.58 181 445.44 181 445.44 222.69 438.56 222.69"></polygon>
            <path d="M252.37,1.13686838e-13 C251.29,1 250.22,1.94 249.18,2.93 C234.58,16.84 217.41,24.5 197.06,24.93 C188.895099,24.9197617 180.738081,25.4375085 172.64,26.48 C152.82,29.48 137.54,39.82 126.64,55.73 C124.38,52.92 122.02,49.35 119.04,46.4 C109.04,36.54 97.53,29.09 83.44,27.02 C74.04,25.63 64.44,25.29 54.95,24.88 C38.33,24.17 23.42,19.06 10.52,8.45 C7.25,5.76 4.07,2.96 0.83,0.18 C0.68,0.44 0.55,0.57 0.55,0.7 C0.13,17.33 2.22,33.47 10.12,48.4 C19.43,65.98 32.42,79.66 51.51,86.66 C59.51,89.61 67.77,92.09 75.75,95.18 C81.5000146,97.3101212 87.0653854,99.908855 92.39,102.95 C100.65,107.84 105.25,115.45 105.48,125.13 C105.71,134.81 105.58,144.52 105.17,154.2 C105.11,155.68 105.02,157.2 104.85,158.63 L127,171.34 L148.68,158.74 C148.17,147.19 147.68,135.62 147.85,124.06 C147.96,116.88 151.25,110.7 156.8,105.88 C161.727514,101.784799 167.373445,98.6413895 173.45,96.61 C181.45,93.69 189.65,91.05 197.71,88.16 C207.82,84.52 217.41,79.9 225.22,72.3 C241.4,56.55 250.75,37.53 252.34,14.92 C252.66,10 252.37,5.06 252.37,1.13686838e-13 Z" id="Path" fill="#DDDDDD"></path>
        </g>
    </g>
</svg>
